<svg xmlns="http://www.w3.org/2000/svg" viewBox="0 0 120 120" fill="none">
  <!-- Gold token base -->
  <circle cx="60" cy="65" r="38" fill="#D4A017" stroke="#B8860B" stroke-width="3"/>
  <circle cx="60" cy="65" r="32" fill="none" stroke="#F0D060" stroke-width="1.5" opacity="0.6"/>
  
  <!-- Token "T" letter -->
  <text x="60" y="75" text-anchor="middle" font-family="monospace" font-weight="bold" font-size="30" fill="#1a1a1a" opacity="0.3">T</text>
  
  <!-- Black fedora hat -->
  <ellipse cx="60" cy="35" rx="35" ry="8" fill="#111111"/>
  <path d="M30 35 Q32 12 60 10 Q88 12 90 35" fill="#1a1a1a"/>
  <ellipse cx="60" cy="35" rx="42" ry="10" fill="#111111"/>
  <!-- Hat band -->
  <rect x="28" y="32" width="64" height="5" rx="2" fill="#2a2a2a"/>
  <rect x="54" y="31" width="12" height="7" rx="1" fill="#D4A017" opacity="0.8"/>
  
  <!-- Black sunglasses -->
  <rect x="36" y="55" width="20" height="13" rx="4" fill="#0a0a0a" stroke="#333" stroke-width="1"/>
  <rect x="64" y="55" width="20" height="13" rx="4" fill="#0a0a0a" stroke="#333" stroke-width="1"/>
  <!-- Bridge -->
  <path d="M56 61 Q60 58 64 61" stroke="#333" stroke-width="2" fill="none"/>
  <!-- Lens glare -->
  <rect x="39" y="57" width="6" height="3" rx="1" fill="white" opacity="0.15"/>
  <rect x="67" y="57" width="6" height="3" rx="1" fill="white" opacity="0.15"/>
  <!-- Temple arms -->
  <line x1="36" y1="60" x2="25" y2="58" stroke="#333" stroke-width="2"/>
  <line x1="84" y1="60" x2="95" y2="58" stroke="#333" stroke-width="2"/>
</svg>
